<?xml version="1.0" encoding="UTF-8"?>
<svg xmlns="http://www.w3.org/2000/svg" xmlns:xlink="http://www.w3.org/1999/xlink" width="117px" height="24px" viewBox="0 0 117 24" version="1.1">
<g id="surface1">
<path style=" stroke:none;fill-rule:nonzero;fill:rgb(10.588235%,83.137255%,37.254902%);fill-opacity:1;" d="M 5.257812 5.257812 C 6.675781 5.242188 8.097656 5.230469 9.519531 5.222656 C 10.179688 5.21875 10.839844 5.214844 11.5 5.207031 C 12.136719 5.199219 12.777344 5.195312 13.414062 5.191406 C 13.65625 5.191406 13.898438 5.1875 14.140625 5.183594 C 15.839844 5.160156 16.9375 5.273438 18.28125 6.398438 C 18.453125 6.621094 18.453125 6.621094 18.589844 6.84375 C 18.632812 6.914062 18.679688 6.988281 18.726562 7.0625 C 19.21875 8.039062 19.226562 9.226562 19.011719 10.289062 C 18.746094 11.027344 18.257812 11.5625 17.710938 12.113281 C 17.8125 12.1875 17.914062 12.261719 18.015625 12.335938 C 18.566406 12.789062 18.957031 13.46875 19.082031 14.171875 C 19.171875 15.488281 19.121094 16.660156 18.28125 17.75 C 17.183594 18.835938 16.082031 18.945312 14.609375 18.9375 C 14.375 18.933594 14.136719 18.929688 13.898438 18.929688 C 13.652344 18.925781 13.40625 18.925781 13.160156 18.925781 C 12.515625 18.925781 11.871094 18.917969 11.226562 18.910156 C 10.699219 18.90625 10.171875 18.902344 9.644531 18.902344 C 9.015625 18.898438 8.386719 18.894531 7.757812 18.890625 C 7.578125 18.890625 7.578125 18.890625 7.394531 18.890625 C 7.054688 18.886719 6.714844 18.882812 6.378906 18.882812 C 6.277344 18.878906 6.175781 18.878906 6.074219 18.878906 C 5.382812 18.871094 5.382812 18.871094 5.257812 18.742188 C 5.246094 18.550781 5.242188 18.363281 5.242188 18.171875 C 5.242188 18.066406 5.242188 17.964844 5.242188 17.855469 C 5.257812 17.601562 5.257812 17.601562 5.371094 17.484375 C 5.6875 17.472656 6.003906 17.46875 6.324219 17.46875 C 6.421875 17.46875 6.523438 17.46875 6.625 17.46875 C 6.84375 17.46875 7.0625 17.46875 7.28125 17.464844 C 7.625 17.464844 7.96875 17.464844 8.316406 17.460938 C 9.296875 17.457031 10.28125 17.449219 11.261719 17.449219 C 11.863281 17.449219 12.464844 17.445312 13.0625 17.4375 C 13.292969 17.4375 13.519531 17.4375 13.75 17.4375 C 14.070312 17.4375 14.390625 17.433594 14.710938 17.433594 C 14.804688 17.433594 14.898438 17.433594 14.996094 17.433594 C 15.75 17.421875 16.347656 17.210938 16.917969 16.707031 C 16.96875 16.640625 17.019531 16.574219 17.074219 16.507812 C 17.128906 16.441406 17.183594 16.375 17.238281 16.308594 C 17.59375 15.773438 17.53125 15.125 17.480469 14.515625 C 17.253906 13.867188 16.84375 13.460938 16.296875 13.058594 C 15.644531 12.746094 14.902344 12.78125 14.191406 12.777344 C 14.097656 12.777344 14 12.773438 13.898438 12.773438 C 13.582031 12.769531 13.261719 12.765625 12.945312 12.765625 C 12.722656 12.761719 12.5 12.757812 12.277344 12.757812 C 11.695312 12.75 11.113281 12.746094 10.535156 12.738281 C 9.9375 12.734375 9.34375 12.726562 8.75 12.722656 C 7.585938 12.707031 6.421875 12.695312 5.257812 12.6875 C 5.253906 12.480469 5.25 12.269531 5.25 12.0625 C 5.246094 11.949219 5.246094 11.832031 5.246094 11.714844 C 5.257812 11.429688 5.257812 11.429688 5.371094 11.3125 C 5.691406 11.304688 6.011719 11.300781 6.332031 11.300781 C 6.433594 11.300781 6.535156 11.300781 6.640625 11.300781 C 6.859375 11.296875 7.082031 11.296875 7.300781 11.296875 C 7.769531 11.296875 8.238281 11.296875 8.707031 11.292969 C 9.582031 11.289062 10.453125 11.285156 11.328125 11.285156 C 11.933594 11.285156 12.542969 11.28125 13.148438 11.277344 C 13.378906 11.277344 13.609375 11.277344 13.84375 11.277344 C 14.167969 11.277344 14.492188 11.277344 14.816406 11.273438 C 14.910156 11.273438 15.003906 11.277344 15.101562 11.277344 C 15.96875 11.261719 16.507812 10.902344 17.125 10.3125 C 17.484375 9.761719 17.632812 9.289062 17.570312 8.625 C 17.382812 7.800781 16.90625 7.332031 16.226562 6.855469 C 15.777344 6.707031 15.347656 6.722656 14.878906 6.722656 C 14.726562 6.71875 14.726562 6.71875 14.570312 6.71875 C 14.347656 6.714844 14.125 6.714844 13.902344 6.714844 C 13.550781 6.710938 13.199219 6.707031 12.847656 6.703125 C 11.976562 6.695312 11.101562 6.691406 10.230469 6.683594 C 9.492188 6.675781 8.757812 6.671875 8.019531 6.664062 C 7.671875 6.660156 7.324219 6.660156 6.976562 6.65625 C 6.765625 6.652344 6.554688 6.652344 6.34375 6.648438 C 6.246094 6.648438 6.148438 6.648438 6.046875 6.648438 C 5.382812 6.640625 5.382812 6.640625 5.257812 6.515625 C 5.246094 6.300781 5.246094 6.089844 5.25 5.878906 C 5.25 5.761719 5.25 5.648438 5.25 5.527344 C 5.253906 5.4375 5.253906 5.347656 5.257812 5.257812 Z M 5.257812 5.257812 "/>
<path style=" stroke:none;fill-rule:nonzero;fill:rgb(10.196078%,82.745098%,36.862745%);fill-opacity:1;" d="M 107.746094 5.714844 C 107.898438 5.777344 107.898438 5.777344 108.050781 5.84375 C 109.839844 6.664062 110.953125 8.09375 111.632812 9.914062 C 112.164062 11.679688 111.980469 13.644531 111.152344 15.269531 C 110.15625 17.007812 108.796875 18.203125 106.855469 18.804688 C 106.25 18.929688 105.613281 18.886719 104.996094 18.894531 C 104.851562 18.894531 104.703125 18.898438 104.554688 18.902344 C 102.734375 18.914062 101.335938 18.203125 100.019531 16.96875 C 98.671875 15.566406 98.050781 13.949219 97.996094 12.019531 C 98.039062 9.882812 98.808594 8.316406 100.320312 6.855469 C 100.769531 6.457031 101.246094 6.195312 101.78125 5.929688 C 101.859375 5.890625 101.9375 5.847656 102.015625 5.808594 C 103.726562 4.953125 106 4.945312 107.746094 5.714844 Z M 100.660156 8.6875 C 99.660156 10.066406 99.472656 11.472656 99.632812 13.144531 C 99.90625 14.511719 100.785156 15.773438 101.917969 16.570312 C 103.273438 17.363281 104.609375 17.734375 106.179688 17.40625 C 107.859375 16.886719 109.035156 15.90625 109.914062 14.398438 C 110.511719 13.226562 110.574219 11.816406 110.273438 10.546875 C 109.984375 9.738281 109.578125 9.089844 109 8.457031 C 108.9375 8.382812 108.871094 8.3125 108.804688 8.238281 C 107.867188 7.242188 106.738281 6.726562 105.375 6.585938 C 103.515625 6.527344 101.855469 7.246094 100.660156 8.6875 Z M 100.660156 8.6875 "/>
<path style=" stroke:none;fill-rule:nonzero;fill:rgb(9.803922%,82.745098%,36.862745%);fill-opacity:1;" d="M 66.269531 5.257812 C 66.53125 5.277344 66.53125 5.277344 66.839844 5.371094 C 67.050781 5.632812 67.050781 5.632812 67.246094 5.984375 C 67.316406 6.117188 67.390625 6.246094 67.464844 6.378906 C 67.542969 6.523438 67.621094 6.664062 67.699219 6.808594 C 67.777344 6.953125 67.859375 7.097656 67.941406 7.242188 C 68.1875 7.683594 68.425781 8.128906 68.667969 8.570312 C 68.742188 8.707031 68.816406 8.839844 68.886719 8.972656 C 69.144531 9.449219 69.402344 9.921875 69.660156 10.402344 C 69.980469 11 70.3125 11.585938 70.667969 12.167969 C 70.96875 12.675781 71.257812 13.1875 71.546875 13.699219 C 71.609375 13.8125 71.675781 13.925781 71.742188 14.042969 C 72.21875 14.894531 72.691406 15.75 73.160156 16.609375 C 73.476562 17.1875 73.804688 17.753906 74.160156 18.3125 C 74.265625 18.515625 74.265625 18.515625 74.265625 18.855469 C 73.664062 18.855469 73.0625 18.855469 72.4375 18.855469 C 72.355469 18.710938 72.273438 18.566406 72.1875 18.417969 C 72.132812 18.320312 72.078125 18.226562 72.023438 18.125 C 71.898438 17.910156 71.773438 17.695312 71.652344 17.480469 C 71.34375 16.9375 71.03125 16.394531 70.71875 15.851562 C 70.074219 14.726562 69.441406 13.59375 68.824219 12.453125 C 68.425781 11.71875 68.011719 10.992188 67.582031 10.273438 C 67.199219 9.640625 66.847656 8.992188 66.5 8.34375 C 65.734375 9.695312 64.96875 11.046875 64.210938 12.398438 C 63.222656 14.167969 62.230469 15.9375 61.222656 17.691406 C 61.140625 17.832031 61.140625 17.832031 61.0625 17.96875 C 61.015625 18.054688 60.964844 18.136719 60.914062 18.222656 C 60.875 18.296875 60.832031 18.371094 60.789062 18.445312 C 60.671875 18.628906 60.671875 18.628906 60.441406 18.855469 C 60.148438 18.875 59.867188 18.878906 59.570312 18.871094 C 59.449219 18.871094 59.449219 18.871094 59.328125 18.867188 C 59.128906 18.867188 58.929688 18.863281 58.726562 18.855469 C 58.792969 18.433594 58.910156 18.125 59.121094 17.753906 C 59.179688 17.652344 59.238281 17.550781 59.300781 17.445312 C 59.394531 17.28125 59.394531 17.28125 59.492188 17.113281 C 59.628906 16.878906 59.765625 16.640625 59.898438 16.402344 C 60.007812 16.21875 60.007812 16.21875 60.113281 16.03125 C 60.460938 15.425781 60.800781 14.8125 61.140625 14.199219 C 61.609375 13.363281 62.082031 12.53125 62.5625 11.707031 C 63.039062 10.890625 63.492188 10.0625 63.941406 9.230469 C 64.5 8.191406 65.078125 7.171875 65.699219 6.171875 C 65.761719 6.070312 65.824219 5.96875 65.886719 5.863281 C 66.015625 5.660156 66.140625 5.460938 66.269531 5.257812 Z M 66.269531 5.257812 "/>
<path style=" stroke:none;fill-rule:nonzero;fill:rgb(10.196078%,82.745098%,36.862745%);fill-opacity:1;" d="M 30.964844 5.257812 C 31.234375 5.277344 31.234375 5.277344 31.535156 5.371094 C 31.714844 5.585938 31.714844 5.585938 31.867188 5.875 C 31.953125 6.03125 31.953125 6.03125 32.042969 6.195312 C 32.105469 6.308594 32.164062 6.425781 32.226562 6.542969 C 32.359375 6.785156 32.492188 7.027344 32.625 7.269531 C 32.691406 7.394531 32.757812 7.515625 32.828125 7.644531 C 33.105469 8.15625 33.398438 8.664062 33.691406 9.171875 C 34.292969 10.222656 34.882812 11.28125 35.46875 12.339844 C 35.96875 13.242188 36.480469 14.144531 36.992188 15.039062 C 37.421875 15.785156 37.839844 16.53125 38.253906 17.285156 C 38.296875 17.363281 38.339844 17.441406 38.382812 17.519531 C 38.445312 17.632812 38.445312 17.632812 38.503906 17.742188 C 38.605469 17.917969 38.714844 18.09375 38.820312 18.265625 C 38.960938 18.515625 38.960938 18.515625 38.960938 18.855469 C 38.359375 18.855469 37.753906 18.855469 37.132812 18.855469 C 37.046875 18.703125 36.957031 18.546875 36.867188 18.386719 C 36.808594 18.289062 36.75 18.1875 36.691406 18.085938 C 36.566406 17.863281 36.441406 17.644531 36.316406 17.425781 C 36.042969 16.945312 35.765625 16.464844 35.492188 15.984375 C 35.453125 15.917969 35.414062 15.847656 35.371094 15.777344 C 35.269531 15.601562 35.167969 15.421875 35.066406 15.246094 C 34.882812 14.921875 34.707031 14.59375 34.527344 14.269531 C 34.15625 13.585938 33.777344 12.910156 33.398438 12.234375 C 32.992188 11.511719 32.585938 10.785156 32.1875 10.054688 C 32.128906 9.949219 32.074219 9.839844 32.015625 9.734375 C 31.90625 9.535156 31.800781 9.335938 31.691406 9.136719 C 31.644531 9.046875 31.597656 8.957031 31.546875 8.867188 C 31.507812 8.789062 31.464844 8.714844 31.421875 8.632812 C 31.316406 8.4375 31.316406 8.4375 31.078125 8.34375 C 31.046875 8.421875 31.019531 8.503906 30.988281 8.585938 C 30.839844 8.933594 30.671875 9.253906 30.488281 9.582031 C 30.417969 9.707031 30.347656 9.835938 30.273438 9.96875 C 30.195312 10.105469 30.121094 10.242188 30.042969 10.378906 C 29.964844 10.519531 29.886719 10.660156 29.808594 10.800781 C 29.363281 11.597656 28.914062 12.394531 28.464844 13.191406 C 28.257812 13.558594 28.050781 13.929688 27.847656 14.300781 C 27.28125 15.332031 26.699219 16.351562 26.109375 17.371094 C 26.039062 17.492188 25.96875 17.613281 25.894531 17.738281 C 25.832031 17.851562 25.765625 17.960938 25.699219 18.078125 C 25.609375 18.230469 25.609375 18.230469 25.519531 18.382812 C 25.367188 18.628906 25.367188 18.628906 25.136719 18.855469 C 24.84375 18.875 24.558594 18.878906 24.265625 18.871094 C 24.144531 18.871094 24.144531 18.871094 24.019531 18.867188 C 23.820312 18.867188 23.621094 18.863281 23.421875 18.855469 C 23.484375 18.261719 23.785156 17.820312 24.085938 17.320312 C 24.566406 16.507812 25.03125 15.6875 25.480469 14.855469 C 25.960938 13.96875 26.453125 13.089844 26.964844 12.21875 C 27.5625 11.191406 28.132812 10.152344 28.707031 9.113281 C 29.242188 8.144531 29.78125 7.175781 30.34375 6.222656 C 30.417969 6.097656 30.417969 6.097656 30.492188 5.96875 C 30.835938 5.386719 30.835938 5.386719 30.964844 5.257812 Z M 30.964844 5.257812 "/>
<path style=" stroke:none;fill-rule:nonzero;fill:rgb(9.803922%,83.137255%,36.470588%);fill-opacity:1;" d="M 87.0625 5.257812 C 87.414062 5.292969 87.585938 5.308594 87.816406 5.585938 C 87.867188 5.683594 87.917969 5.777344 87.96875 5.875 C 88.027344 5.980469 88.085938 6.085938 88.144531 6.195312 C 88.207031 6.308594 88.265625 6.425781 88.328125 6.542969 C 88.460938 6.785156 88.59375 7.027344 88.726562 7.269531 C 88.824219 7.453125 88.824219 7.453125 88.925781 7.640625 C 89.210938 8.167969 89.511719 8.6875 89.8125 9.207031 C 90.273438 10.007812 90.71875 10.8125 91.15625 11.621094 C 91.738281 12.695312 92.34375 13.75 92.953125 14.808594 C 93.433594 15.636719 93.910156 16.472656 94.371094 17.3125 C 94.414062 17.386719 94.453125 17.464844 94.496094 17.542969 C 94.554688 17.644531 94.554688 17.644531 94.613281 17.753906 C 94.710938 17.925781 94.820312 18.09375 94.929688 18.261719 C 94.996094 18.386719 94.996094 18.386719 95.0625 18.515625 C 95.023438 18.628906 94.988281 18.742188 94.949219 18.855469 C 94.382812 18.855469 93.816406 18.855469 93.234375 18.855469 C 93 18.445312 92.769531 18.035156 92.535156 17.621094 C 92.46875 17.507812 92.40625 17.390625 92.335938 17.273438 C 91.964844 16.613281 91.597656 15.949219 91.234375 15.28125 C 90.941406 14.75 90.640625 14.222656 90.34375 13.691406 C 90.210938 13.460938 90.078125 13.230469 89.949219 12.996094 C 89.886719 12.886719 89.820312 12.773438 89.757812 12.65625 C 89.519531 12.238281 89.28125 11.816406 89.042969 11.394531 C 88.984375 11.289062 88.984375 11.289062 88.921875 11.179688 C 88.691406 10.769531 88.464844 10.359375 88.242188 9.949219 C 88.1875 9.855469 88.136719 9.757812 88.082031 9.660156 C 87.980469 9.476562 87.882812 9.292969 87.78125 9.105469 C 87.734375 9.023438 87.691406 8.941406 87.644531 8.855469 C 87.601562 8.78125 87.5625 8.707031 87.523438 8.628906 C 87.414062 8.4375 87.414062 8.4375 87.179688 8.34375 C 87.148438 8.421875 87.121094 8.5 87.089844 8.578125 C 86.925781 8.96875 86.726562 9.332031 86.515625 9.699219 C 86.46875 9.777344 86.425781 9.859375 86.378906 9.9375 C 86.226562 10.207031 86.074219 10.476562 85.921875 10.742188 C 85.691406 11.148438 85.460938 11.558594 85.230469 11.964844 C 85.167969 12.074219 85.105469 12.183594 85.042969 12.296875 C 84.605469 13.070312 84.171875 13.847656 83.746094 14.628906 C 83.585938 14.914062 83.429688 15.195312 83.269531 15.480469 C 82.921875 16.105469 82.582031 16.730469 82.277344 17.378906 C 81.605469 18.757812 81.605469 18.757812 81.121094 18.945312 C 80.570312 19.039062 80.066406 18.972656 79.523438 18.855469 C 79.582031 18.261719 79.886719 17.816406 80.1875 17.3125 C 80.304688 17.117188 80.417969 16.921875 80.53125 16.726562 C 80.59375 16.625 80.652344 16.523438 80.714844 16.421875 C 81.003906 15.929688 81.289062 15.433594 81.574219 14.9375 C 81.628906 14.835938 81.6875 14.738281 81.746094 14.632812 C 82.214844 13.8125 82.664062 12.980469 83.113281 12.148438 C 83.582031 11.289062 84.078125 10.449219 84.582031 9.605469 C 85.042969 8.835938 85.464844 8.050781 85.875 7.25 C 86.234375 6.558594 86.625 5.902344 87.0625 5.257812 Z M 87.0625 5.257812 "/>
<path style=" stroke:none;fill-rule:nonzero;fill:rgb(9.803922%,82.352941%,37.254902%);fill-opacity:1;" d="M 53.128906 5.257812 C 54.035156 5.257812 54.941406 5.257812 55.871094 5.257812 C 55.878906 6.246094 55.886719 7.234375 55.890625 8.226562 C 55.890625 8.683594 55.894531 9.144531 55.898438 9.605469 C 55.902344 10.050781 55.902344 10.492188 55.90625 10.9375 C 55.90625 11.105469 55.90625 11.277344 55.910156 11.445312 C 55.929688 13.636719 55.34375 15.492188 53.796875 17.085938 C 52.335938 18.378906 50.8125 18.945312 48.859375 18.921875 C 48.714844 18.921875 48.566406 18.917969 48.417969 18.917969 C 46.375 18.871094 44.980469 18.113281 43.570312 16.648438 C 42.363281 15.265625 41.910156 13.800781 41.933594 12 C 42.460938 12 42.988281 12 43.53125 12 C 43.550781 12.117188 43.566406 12.230469 43.582031 12.351562 C 43.832031 13.929688 44.335938 15.324219 45.640625 16.332031 C 47.003906 17.257812 48.378906 17.582031 50.015625 17.320312 C 51.339844 16.980469 52.585938 16.152344 53.328125 15.003906 C 54.085938 13.675781 54.171875 12.402344 54.195312 10.902344 C 54.199219 10.71875 54.199219 10.71875 54.203125 10.53125 C 54.207031 10.140625 54.214844 9.753906 54.222656 9.363281 C 54.226562 9.097656 54.230469 8.835938 54.238281 8.570312 C 54.25 7.921875 54.261719 7.273438 54.273438 6.628906 C 54.199219 6.628906 54.125 6.632812 54.050781 6.632812 C 53.957031 6.632812 53.863281 6.632812 53.765625 6.636719 C 53.625 6.636719 53.625 6.636719 53.480469 6.640625 C 53.242188 6.628906 53.242188 6.628906 53.128906 6.515625 C 53.128906 6.097656 53.128906 5.683594 53.128906 5.257812 Z M 53.128906 5.257812 "/>
<path style=" stroke:none;fill-rule:nonzero;fill:rgb(10.196078%,83.137255%,38.039216%);fill-opacity:1;" d="M 105.574219 11.085938 C 105.933594 11.375 106.011719 11.546875 106.089844 12 C 106.015625 12.441406 105.914062 12.617188 105.574219 12.914062 C 105.261719 13.027344 104.988281 13.0625 104.660156 13.027344 C 104.332031 12.828125 104.144531 12.6875 103.976562 12.34375 C 103.933594 11.917969 103.917969 11.640625 104.132812 11.265625 C 104.597656 10.988281 105.046875 10.984375 105.574219 11.085938 Z M 105.574219 11.085938 "/>
</g>
</svg>
